<svg width="120" height="100%" viewBox="0 0 406 95" fill="none"
    xmlns="http://www.w3.org/2000/svg">
    <path d="M0.706677 93V5.72727H36.7578C43.2919 5.72727 48.9311 7.00568 53.6754 9.5625C58.4482 12.0909 62.1271 15.6278 64.7124 20.1733C67.2976 24.6903 68.5902 29.946 68.5902 35.9403C68.5902 41.9631 67.2692 47.233 64.6271 51.75C62.0135 56.2386 58.2777 59.7187 53.4197 62.1903C48.5618 64.6619 42.7947 65.8977 36.1186 65.8977H13.8743V49.2784H32.1982C35.38 49.2784 38.0362 48.7244 40.1669 47.6165C42.326 46.5085 43.9595 44.9602 45.0675 42.9716C46.1754 40.9545 46.7294 38.6108 46.7294 35.9403C46.7294 33.2415 46.1754 30.9119 45.0675 28.9517C43.9595 26.9631 42.326 25.429 40.1669 24.3494C38.0078 23.2699 35.3516 22.7301 32.1982 22.7301H21.8004V93H0.706677ZM78.9879 93V5.72727H115.039C121.573 5.72727 127.212 7.00568 131.957 9.5625C136.729 12.0909 140.408 15.6278 142.994 20.1733C145.579 24.6903 146.871 29.946 146.871 35.9403C146.871 41.9631 145.55 47.233 142.908 51.75C140.295 56.2386 136.559 59.7187 131.701 62.1903C126.843 64.6619 121.076 65.8977 114.4 65.8977H92.1555V49.2784H110.479C113.661 49.2784 116.317 48.7244 118.448 47.6165C120.607 46.5085 122.241 44.9602 123.349 42.9716C124.457 40.9545 125.011 38.6108 125.011 35.9403C125.011 33.2415 124.457 30.9119 123.349 28.9517C122.241 26.9631 120.607 25.429 118.448 24.3494C116.289 23.2699 113.633 22.7301 110.479 22.7301H100.082V93H78.9879ZM157.269 93V5.72727H193.32C199.854 5.72727 205.494 7.00568 210.238 9.5625C215.011 12.0909 218.69 15.6278 221.275 20.1733C223.86 24.6903 225.153 29.946 225.153 35.9403C225.153 41.9631 223.832 47.233 221.19 51.75C218.576 56.2386 214.84 59.7187 209.982 62.1903C205.124 64.6619 199.357 65.8977 192.681 65.8977H170.437V49.2784H188.761C191.942 49.2784 194.599 48.7244 196.729 47.6165C198.888 46.5085 200.522 44.9602 201.63 42.9716C202.738 40.9545 203.292 38.6108 203.292 35.9403C203.292 33.2415 202.738 30.9119 201.63 28.9517C200.522 26.9631 198.888 25.429 196.729 24.3494C194.57 23.2699 191.914 22.7301 188.761 22.7301H178.363V93H157.269ZM235.55 93V27.5455H256.388V93H235.55ZM245.991 19.9176C243.065 19.9176 240.55 18.9517 238.448 17.0199C236.346 15.0597 235.295 12.7017 235.295 9.94602C235.295 7.21875 236.346 4.8892 238.448 2.95739C240.55 0.997155 243.065 0.0170403 245.991 0.0170403C248.945 0.0170403 251.46 0.997155 253.533 2.95739C255.636 4.8892 256.687 7.21875 256.687 9.94602C256.687 12.7017 255.636 15.0597 253.533 17.0199C251.46 18.9517 248.945 19.9176 245.991 19.9176ZM300.206 94.2358C293.303 94.2358 287.379 92.8153 282.436 89.9744C277.521 87.1335 273.743 83.1847 271.101 78.1278C268.459 73.0426 267.138 67.1619 267.138 60.4858C267.138 53.7812 268.459 47.9006 271.101 42.8438C273.771 37.7585 277.564 33.7955 282.479 30.9545C287.422 28.1136 293.317 26.6932 300.163 26.6932C306.214 26.6932 311.484 27.7869 315.973 29.9744C320.49 32.1619 324.013 35.2585 326.541 39.2642C329.098 43.2415 330.447 47.9148 330.589 53.2841H311.115C310.717 49.9318 309.581 47.304 307.706 45.4006C305.859 43.4972 303.445 42.5455 300.462 42.5455C298.047 42.5455 295.93 43.2273 294.112 44.5909C292.294 45.9261 290.874 47.9148 289.851 50.5568C288.857 53.1705 288.359 56.4091 288.359 60.2727C288.359 64.1364 288.857 67.4034 289.851 70.0739C290.874 72.7159 292.294 74.7187 294.112 76.0824C295.93 77.4176 298.047 78.0852 300.462 78.0852C302.393 78.0852 304.098 77.6733 305.575 76.8494C307.081 76.0256 308.317 74.8182 309.283 73.2273C310.249 71.608 310.859 69.6477 311.115 67.3466H330.589C330.391 72.7443 329.041 77.4602 326.541 81.4943C324.07 85.5284 320.589 88.6676 316.101 90.9119C311.641 93.1278 306.342 94.2358 300.206 94.2358ZM360.046 75.8267L360.131 50.983H363.029L381.438 27.5455H405.046L377.688 61.125H372.191L360.046 75.8267ZM341.254 93V5.72727H362.092V93H341.254ZM381.907 93L364.776 65.8125L378.498 51.0256L405.984 93H381.907Z" fill="black"/>
</svg>
